<svg width="800" height="800" viewBox="0 0 800 800" fill="none" xmlns="http://www.w3.org/2000/svg">
<circle cx="400" cy="387" r="300" fill="url(#paint0_radial_2_2)"/>
<path d="M128.474 433.566C128.474 431.418 128.767 429.465 129.353 427.707C129.939 425.949 130.037 423.703 129.646 420.969C135.701 408.078 142.537 396.164 150.154 385.227C157.967 374.094 167.244 364.328 177.986 355.93C179.744 354.562 181.111 353.195 182.088 351.828C183.26 350.266 184.334 348.801 185.31 347.434C186.482 346.066 187.752 344.895 189.119 343.918C190.486 342.746 192.244 341.965 194.392 341.574C199.275 335.91 205.135 330.734 211.97 326.047C218.806 321.359 225.935 316.867 233.357 312.57C240.779 308.273 248.201 303.879 255.623 299.387C263.24 294.895 270.076 290.012 276.131 284.738C278.279 286.105 279.939 286.594 281.111 286.203C282.478 285.617 283.845 285.52 285.213 285.91C286.97 289.621 289.217 292.258 291.951 293.82C294.881 295.188 297.81 296.652 300.74 298.215C303.865 299.582 306.697 301.34 309.236 303.488C311.97 305.441 314.021 308.176 315.388 311.691C314.021 311.691 313.338 312.18 313.338 313.156C313.533 314.133 313.826 315.207 314.217 316.379C314.607 317.551 314.803 318.625 314.803 319.602C314.803 320.578 313.924 321.066 312.166 321.066C312.166 322.434 312.849 323.117 314.217 323.117C315.584 323.117 316.267 323.801 316.267 325.168C316.267 326.34 315.974 327.316 315.388 328.098C314.998 328.684 314.998 329.758 315.388 331.32C310.701 334.445 305.428 337.473 299.568 340.402C293.904 343.137 287.849 346.066 281.404 349.191C275.154 352.316 268.709 355.734 262.068 359.445C255.623 362.961 249.178 367.062 242.732 371.75C236.287 376.438 229.744 381.613 223.103 387.277C216.658 392.941 210.408 398.996 204.353 405.441C198.299 411.691 192.635 418.234 187.361 425.07C182.088 431.711 177.595 438.254 173.885 444.699C174.275 445.676 174.763 446.555 175.349 447.336C176.131 448.117 176.717 448.996 177.107 449.973C184.529 450.363 191.463 450.363 197.908 449.973C204.353 449.387 210.799 449.777 217.244 451.145C218.025 450.559 218.513 449.777 218.709 448.801C218.904 447.824 219.49 447.141 220.467 446.75C233.748 445.383 246.15 443.234 257.674 440.305C269.197 437.18 280.916 434.055 292.83 430.93C289.314 429.562 286.189 428.488 283.455 427.707C282.283 426.535 282.283 425.559 283.455 424.777C284.822 423.801 285.896 422.824 286.678 421.848C283.553 420.09 280.916 417.746 278.767 414.816C276.814 411.887 275.642 408.078 275.252 403.391C276.619 402.219 277.303 400.852 277.303 399.289C277.303 397.727 276.619 396.457 275.252 395.48C274.275 395.09 273.689 395.09 273.494 395.48C273.299 395.871 273.103 396.262 272.908 396.652C272.908 397.043 272.713 397.434 272.322 397.824C272.127 398.215 271.638 398.215 270.857 397.824C271.053 395.676 271.541 393.918 272.322 392.551C273.103 391.184 273.689 389.523 274.08 387.57L298.396 371.457C300.935 373.41 304.06 375.461 307.771 377.609C311.482 379.758 315.388 381.906 319.49 384.055C323.592 386.203 327.791 388.449 332.088 390.793C336.385 392.941 340.388 395.09 344.099 397.238C347.615 398.801 350.642 400.754 353.181 403.098C355.72 405.246 358.162 407.59 360.506 410.129C362.849 412.473 365.193 414.816 367.537 417.16C369.881 419.504 372.713 421.457 376.033 423.02C375.642 426.145 375.838 428.684 376.619 430.637C377.4 432.59 377.595 434.934 377.205 437.668C373.494 444.309 369.002 449.973 363.728 454.66C358.455 459.152 352.498 463.059 345.857 466.379C339.412 469.699 332.478 472.531 325.056 474.875C317.635 477.023 310.017 479.172 302.205 481.32C294.392 483.273 286.482 485.422 278.474 487.766C270.662 489.914 262.947 492.453 255.33 495.383C252.01 495.383 249.178 495.48 246.834 495.676C244.49 495.871 242.244 496.164 240.095 496.555C237.947 496.945 235.799 497.336 233.65 497.727C231.502 498.117 229.158 498.41 226.619 498.605C225.642 498.41 224.959 498.605 224.568 499.191C224.373 499.777 223.982 500.266 223.396 500.656C219.49 501.242 215.974 501.535 212.849 501.535C209.724 501.535 207.088 501.535 204.939 501.535C202.205 501.535 199.373 501.926 196.443 502.707C193.513 503.488 190.779 503.781 188.24 503.586C170.662 502.805 156.892 496.555 146.931 484.836C136.97 473.117 131.502 457.004 130.525 436.496C130.72 435.52 130.525 434.934 129.939 434.738C129.353 434.348 128.865 433.957 128.474 433.566ZM406.56 507.102C404.607 507.102 401.58 506.809 397.478 506.223C394.353 502.902 391.521 498.41 388.982 492.746C386.638 486.887 384.783 480.734 383.416 474.289C382.244 467.648 381.658 461.105 381.658 454.66C381.853 448.02 383.025 442.16 385.174 437.082C385.174 436.887 386.053 434.543 387.81 430.051C389.763 425.559 392.205 419.895 395.135 413.059C398.064 406.027 401.385 398.312 405.095 389.914C408.806 381.32 412.517 372.922 416.228 364.719C419.939 356.516 423.455 349.094 426.775 342.453C430.291 335.617 433.318 330.344 435.857 326.633C437.615 323.898 439.178 321.262 440.545 318.723C442.107 316.184 443.572 313.84 444.939 311.691C447.088 308.176 449.041 304.953 450.799 302.023C452.752 298.898 454.803 296.164 456.951 293.82C459.295 291.281 461.834 289.133 464.568 287.375C467.303 285.422 470.623 283.762 474.529 282.395C476.873 283.371 478.924 284.445 480.681 285.617C482.439 286.594 484.002 287.863 485.369 289.426L486.248 293.527C486.638 294.895 487.224 295.871 488.006 296.457C488.982 296.848 489.763 297.043 490.349 297.043C492.888 297.629 495.037 298.312 496.795 299.094C498.748 299.68 500.799 300.07 502.947 300.266C503.728 301.438 504.412 302.609 504.998 303.781C505.779 304.953 506.56 306.027 507.342 307.004C511.248 312.668 514.47 318.137 517.01 323.41C519.549 328.684 519.549 334.445 517.01 340.695L517.303 343.918C518.279 345.285 518.767 346.555 518.767 347.727C518.767 348.898 518.572 350.559 518.181 352.707C517.986 354.27 517.791 356.027 517.595 357.98C517.595 359.738 517.888 361.691 518.474 363.84L520.525 366.184C523.65 367.746 526.678 368.527 529.607 368.527C533.513 368.527 537.029 367.648 540.154 365.891C543.279 364.133 546.209 362.375 548.943 360.617C551.092 359.055 553.045 357.785 554.803 356.809C556.756 355.832 558.611 355.148 560.369 354.758C564.47 350.852 568.181 347.434 571.502 344.504C575.017 341.379 578.631 338.254 582.342 335.129C589.373 329.465 596.209 323.41 602.849 316.965C609.49 310.324 614.763 302.121 618.67 292.355C620.818 290.988 623.26 290.305 625.994 290.305C628.728 290.305 631.463 290.891 634.197 292.062C636.931 293.039 639.666 294.211 642.4 295.578C642.986 295.969 643.474 296.262 643.865 296.457C644.451 296.652 645.037 296.945 645.623 297.336C645.623 299.484 646.502 301.438 648.26 303.195C649.236 303.977 649.92 304.465 650.31 304.66C650.701 304.855 651.092 305.051 651.482 305.246C653.045 306.223 654.314 307.102 655.291 307.883C656.463 308.664 657.342 309.738 657.928 311.105C659.685 316.379 662.615 320.48 666.717 323.41C666.326 325.559 666.424 327.707 667.01 329.855C667.595 331.809 668.279 333.762 669.06 335.715C669.451 336.496 669.744 337.277 669.939 338.059C670.135 338.645 670.428 339.426 670.818 340.402L664.373 339.816L665.252 346.262C665.838 349.582 665.545 353.293 664.373 357.395C663.396 361.496 662.224 364.719 660.857 367.062C661.248 372.922 661.443 377.609 661.443 381.125C661.443 384.445 661.248 387.57 660.857 390.5C660.467 393.43 659.783 396.262 658.806 398.996C658.025 401.535 656.951 404.27 655.584 407.199C656.365 422.043 654.607 435.617 650.31 447.922C646.209 460.227 641.717 471.75 636.834 482.492C636.248 483.859 635.662 485.129 635.076 486.301C634.49 487.473 634.002 488.645 633.611 489.816C631.463 490.402 629.51 491.086 627.752 491.867C625.994 492.648 624.334 493.527 622.771 494.504C620.623 495.871 618.474 497.043 616.326 498.02C614.178 498.801 611.931 499.191 609.588 499.191C600.213 492.355 595.33 480.539 594.939 463.742C594.744 446.945 598.357 425.559 605.779 399.582C607.146 398.605 607.732 397.141 607.537 395.188V391.965L604.607 391.672C603.631 391.672 602.752 391.77 601.97 391.965C601.189 392.16 600.603 393.039 600.213 394.602C593.963 399.094 587.127 403.781 579.705 408.664C572.478 413.352 564.959 417.746 557.146 421.848C549.334 425.754 541.326 429.074 533.123 431.809C525.115 434.348 517.303 435.617 509.685 435.617C490.154 435.617 475.408 425.656 465.447 405.734L462.81 400.461L459.881 405.148C459.295 406.125 458.22 408.078 456.658 411.008C455.291 413.742 453.826 416.965 452.263 420.676C450.896 424.387 449.627 428.195 448.455 432.102C447.478 436.008 447.185 439.426 447.576 442.355C445.232 444.504 442.888 446.945 440.545 449.68C438.396 452.414 436.834 455.539 435.857 459.055C435.467 460.031 435.369 461.008 435.564 461.984C435.76 462.766 436.053 463.645 436.443 464.621C436.248 465.988 435.857 466.965 435.271 467.551C434.685 468.137 434.002 468.723 433.22 469.309C432.244 470.285 431.267 471.359 430.291 472.531C429.314 473.508 428.435 474.68 427.654 476.047C427.263 477.219 426.97 478.488 426.775 479.855C426.58 481.027 426.385 482.102 426.189 483.078C426.189 485.227 425.896 486.691 425.31 487.473C423.357 491.574 421.599 494.992 420.037 497.727C418.67 500.266 417.303 502.219 415.935 503.586C414.568 504.953 413.103 505.832 411.541 506.223C410.174 506.809 408.513 507.102 406.56 507.102Z" fill="black"/>
<defs>
<radialGradient id="paint0_radial_2_2" cx="0" cy="0" r="1" gradientUnits="userSpaceOnUse" gradientTransform="translate(400 387) rotate(90) scale(300)">
<stop stop-color="#FAFF00"/>
<stop offset="1" stop-color="#70FF00"/>
</radialGradient>
</defs>
</svg>
