<svg width="691" height="409" viewBox="0 0 691 409" fill="none" xmlns="http://www.w3.org/2000/svg">
<path d="M68.0855 18.6324C13.5064 -5.09774 11.7775 236.084 35.5795 339.629C93.0342 405.513 456.096 415.886 657.256 339.629C692.951 255.101 651.458 9.60242 619.671 18.6324C424.635 101.929 164.588 60.5899 68.0855 18.6324Z" fill="white"/>
<circle cx="344.363" cy="234.355" r="145.225" fill="url(#paint0_radial_2_2)"/>
<path d="M207.488 259.283C207.488 258.209 207.634 257.232 207.927 256.354C208.22 255.475 208.269 254.352 208.074 252.984C211.101 246.539 214.519 240.582 218.328 235.113C222.234 229.547 226.873 224.664 232.244 220.465C233.123 219.781 233.806 219.098 234.294 218.414C234.88 217.633 235.418 216.9 235.906 216.217C236.492 215.533 237.127 214.947 237.81 214.459C238.494 213.873 239.373 213.482 240.447 213.287C242.888 210.455 245.818 207.867 249.236 205.523C252.654 203.18 256.218 200.934 259.929 198.785C263.64 196.637 267.351 194.439 271.062 192.193C274.871 189.947 278.289 187.506 281.316 184.869C282.39 185.553 283.22 185.797 283.806 185.602C284.49 185.309 285.173 185.26 285.857 185.455C286.736 187.311 287.859 188.629 289.226 189.41C290.691 190.094 292.156 190.826 293.621 191.607C295.183 192.291 296.599 193.17 297.869 194.244C299.236 195.221 300.261 196.588 300.945 198.346C300.261 198.346 299.919 198.59 299.919 199.078C300.017 199.566 300.164 200.104 300.359 200.689C300.554 201.275 300.652 201.812 300.652 202.301C300.652 202.789 300.212 203.033 299.334 203.033C299.334 203.717 299.675 204.059 300.359 204.059C301.043 204.059 301.384 204.4 301.384 205.084C301.384 205.67 301.238 206.158 300.945 206.549C300.75 206.842 300.75 207.379 300.945 208.16C298.601 209.723 295.964 211.236 293.035 212.701C290.203 214.068 287.175 215.533 283.953 217.096C280.828 218.658 277.605 220.367 274.285 222.223C271.062 223.98 267.839 226.031 264.617 228.375C261.394 230.719 258.123 233.307 254.802 236.139C251.58 238.971 248.455 241.998 245.427 245.221C242.4 248.346 239.568 251.617 236.931 255.035C234.294 258.355 232.048 261.627 230.193 264.85C230.388 265.338 230.632 265.777 230.925 266.168C231.316 266.559 231.609 266.998 231.804 267.486C235.515 267.682 238.982 267.682 242.205 267.486C245.427 267.193 248.65 267.389 251.873 268.072C252.263 267.779 252.507 267.389 252.605 266.9C252.703 266.412 252.996 266.07 253.484 265.875C260.125 265.191 266.326 264.117 272.087 262.652C277.849 261.09 283.709 259.527 289.666 257.965C287.908 257.281 286.345 256.744 284.978 256.354C284.392 255.768 284.392 255.279 284.978 254.889C285.662 254.4 286.199 253.912 286.589 253.424C285.027 252.545 283.709 251.373 282.634 249.908C281.658 248.443 281.072 246.539 280.877 244.195C281.56 243.609 281.902 242.926 281.902 242.145C281.902 241.363 281.56 240.729 280.877 240.24C280.388 240.045 280.095 240.045 279.998 240.24C279.9 240.436 279.802 240.631 279.705 240.826C279.705 241.021 279.607 241.217 279.412 241.412C279.314 241.607 279.07 241.607 278.679 241.412C278.777 240.338 279.021 239.459 279.412 238.775C279.802 238.092 280.095 237.262 280.291 236.285L292.449 228.229C293.718 229.205 295.281 230.23 297.136 231.305C298.992 232.379 300.945 233.453 302.996 234.527C305.046 235.602 307.146 236.725 309.294 237.896C311.443 238.971 313.445 240.045 315.3 241.119C317.058 241.9 318.572 242.877 319.841 244.049C321.111 245.123 322.332 246.295 323.503 247.564C324.675 248.736 325.847 249.908 327.019 251.08C328.191 252.252 329.607 253.229 331.267 254.01C331.072 255.572 331.169 256.842 331.56 257.818C331.951 258.795 332.048 259.967 331.853 261.334C329.998 264.654 327.752 267.486 325.115 269.83C322.478 272.076 319.5 274.029 316.179 275.689C312.957 277.35 309.49 278.766 305.779 279.938C302.068 281.012 298.259 282.086 294.353 283.16C290.447 284.137 286.492 285.211 282.488 286.383C278.582 287.457 274.724 288.727 270.916 290.191C269.255 290.191 267.839 290.24 266.668 290.338C265.496 290.436 264.373 290.582 263.298 290.777C262.224 290.973 261.15 291.168 260.076 291.363C259.002 291.559 257.83 291.705 256.56 291.803C256.072 291.705 255.73 291.803 255.535 292.096C255.437 292.389 255.242 292.633 254.949 292.828C252.996 293.121 251.238 293.268 249.675 293.268C248.113 293.268 246.794 293.268 245.72 293.268C244.353 293.268 242.937 293.463 241.472 293.854C240.007 294.244 238.64 294.391 237.371 294.293C228.582 293.902 221.697 290.777 216.716 284.918C211.736 279.059 209.002 271.002 208.513 260.748C208.611 260.26 208.513 259.967 208.22 259.869C207.927 259.674 207.683 259.479 207.488 259.283ZM346.531 296.051C345.554 296.051 344.041 295.904 341.99 295.611C340.427 293.951 339.011 291.705 337.742 288.873C336.57 285.943 335.642 282.867 334.959 279.645C334.373 276.324 334.08 273.053 334.08 269.83C334.177 266.51 334.763 263.58 335.837 261.041C335.837 260.943 336.277 259.771 337.156 257.525C338.132 255.279 339.353 252.447 340.818 249.029C342.283 245.514 343.943 241.656 345.798 237.457C347.654 233.16 349.509 228.961 351.365 224.859C353.22 220.758 354.978 217.047 356.638 213.727C358.396 210.309 359.91 207.672 361.179 205.816C362.058 204.449 362.839 203.131 363.523 201.861C364.304 200.592 365.037 199.42 365.72 198.346C366.794 196.588 367.771 194.977 368.65 193.512C369.627 191.949 370.652 190.582 371.726 189.41C372.898 188.141 374.168 187.066 375.535 186.188C376.902 185.211 378.562 184.381 380.515 183.697C381.687 184.186 382.712 184.723 383.591 185.309C384.47 185.797 385.252 186.432 385.935 187.213L386.375 189.264C386.57 189.947 386.863 190.436 387.253 190.729C387.742 190.924 388.132 191.021 388.425 191.021C389.695 191.314 390.769 191.656 391.648 192.047C392.625 192.34 393.65 192.535 394.724 192.633C395.115 193.219 395.457 193.805 395.75 194.391C396.14 194.977 396.531 195.514 396.921 196.002C398.875 198.834 400.486 201.568 401.755 204.205C403.025 206.842 403.025 209.723 401.755 212.848L401.902 214.459C402.39 215.143 402.634 215.777 402.634 216.363C402.634 216.949 402.537 217.779 402.341 218.854C402.244 219.635 402.146 220.514 402.048 221.49C402.048 222.369 402.195 223.346 402.488 224.42L403.513 225.592C405.076 226.373 406.589 226.764 408.054 226.764C410.007 226.764 411.765 226.324 413.328 225.445C414.89 224.566 416.355 223.688 417.722 222.809C418.796 222.027 419.773 221.393 420.652 220.904C421.628 220.416 422.556 220.074 423.435 219.879C425.486 217.926 427.341 216.217 429.002 214.752C430.759 213.189 432.566 211.627 434.421 210.064C437.937 207.232 441.355 204.205 444.675 200.982C447.996 197.662 450.632 193.561 452.586 188.678C453.66 187.994 454.88 187.652 456.248 187.652C457.615 187.652 458.982 187.945 460.349 188.531C461.716 189.02 463.084 189.605 464.451 190.289C464.744 190.484 464.988 190.631 465.183 190.729C465.476 190.826 465.769 190.973 466.062 191.168C466.062 192.242 466.502 193.219 467.38 194.098C467.869 194.488 468.211 194.732 468.406 194.83C468.601 194.928 468.796 195.025 468.992 195.123C469.773 195.611 470.408 196.051 470.896 196.441C471.482 196.832 471.921 197.369 472.214 198.053C473.093 200.689 474.558 202.74 476.609 204.205C476.414 205.279 476.462 206.354 476.755 207.428C477.048 208.404 477.39 209.381 477.781 210.357C477.976 210.748 478.123 211.139 478.22 211.529C478.318 211.822 478.464 212.213 478.66 212.701L475.437 212.408L475.877 215.631C476.169 217.291 476.023 219.146 475.437 221.197C474.949 223.248 474.363 224.859 473.679 226.031C473.875 228.961 473.972 231.305 473.972 233.062C473.972 234.723 473.875 236.285 473.679 237.75C473.484 239.215 473.142 240.631 472.654 241.998C472.263 243.268 471.726 244.635 471.043 246.1C471.433 253.521 470.554 260.309 468.406 266.461C466.355 272.613 464.109 278.375 461.668 283.746C461.375 284.43 461.082 285.064 460.789 285.65C460.496 286.236 460.252 286.822 460.056 287.408C458.982 287.701 458.005 288.043 457.127 288.434C456.248 288.824 455.418 289.264 454.636 289.752C453.562 290.436 452.488 291.021 451.414 291.51C450.339 291.9 449.216 292.096 448.044 292.096C443.357 288.678 440.916 282.77 440.72 274.371C440.623 265.973 442.429 255.279 446.14 242.291C446.824 241.803 447.117 241.07 447.019 240.094V238.482L445.554 238.336C445.066 238.336 444.627 238.385 444.236 238.482C443.845 238.58 443.552 239.02 443.357 239.801C440.232 242.047 436.814 244.391 433.103 246.832C429.49 249.176 425.73 251.373 421.824 253.424C417.918 255.377 413.914 257.037 409.812 258.404C405.808 259.674 401.902 260.309 398.093 260.309C388.328 260.309 380.955 255.328 375.974 245.367L374.656 242.73L373.191 245.074C372.898 245.562 372.361 246.539 371.58 248.004C370.896 249.371 370.164 250.982 369.382 252.838C368.699 254.693 368.064 256.598 367.478 258.551C366.99 260.504 366.843 262.213 367.039 263.678C365.867 264.752 364.695 265.973 363.523 267.34C362.449 268.707 361.668 270.27 361.179 272.027C360.984 272.516 360.935 273.004 361.033 273.492C361.13 273.883 361.277 274.322 361.472 274.811C361.375 275.494 361.179 275.982 360.886 276.275C360.593 276.568 360.252 276.861 359.861 277.154C359.373 277.643 358.884 278.18 358.396 278.766C357.908 279.254 357.468 279.84 357.078 280.523C356.882 281.109 356.736 281.744 356.638 282.428C356.541 283.014 356.443 283.551 356.345 284.039C356.345 285.113 356.199 285.846 355.906 286.236C354.929 288.287 354.05 289.996 353.269 291.363C352.586 292.633 351.902 293.609 351.218 294.293C350.535 294.977 349.802 295.416 349.021 295.611C348.337 295.904 347.507 296.051 346.531 296.051Z" fill="black"/>
<defs>
<radialGradient id="paint0_radial_2_2" cx="0" cy="0" r="1" gradientUnits="userSpaceOnUse" gradientTransform="translate(344.363 234.355) rotate(90) scale(145.225)">
<stop stop-color="#FAFF00"/>
<stop offset="1" stop-color="#70FF00"/>
</radialGradient>
</defs>
</svg>
