<svg width="771" height="184" viewBox="0 0 771 184" fill="none" xmlns="http://www.w3.org/2000/svg">
<path d="M322.833 57.8555C322.833 57.1393 322.93 56.4883 323.126 55.9023C323.321 55.3164 323.354 54.5677 323.223 53.6562C325.242 49.3594 327.52 45.388 330.059 41.7422C332.664 38.0312 335.756 34.776 339.337 31.9766C339.923 31.5208 340.378 31.0651 340.704 30.6094C341.095 30.0885 341.453 29.6003 341.778 29.1445C342.169 28.6888 342.592 28.2982 343.048 27.9727C343.503 27.582 344.089 27.3216 344.805 27.1914C346.433 25.3034 348.386 23.5781 350.665 22.0156C352.943 20.4531 355.32 18.9557 357.794 17.5234C360.268 16.0911 362.742 14.6263 365.216 13.1289C367.755 11.6315 370.033 10.0039 372.052 8.24609C372.768 8.70182 373.321 8.86458 373.712 8.73438C374.167 8.53906 374.623 8.50651 375.079 8.63672C375.665 9.8737 376.414 10.7526 377.325 11.2734C378.302 11.7292 379.278 12.2174 380.255 12.7383C381.296 13.194 382.24 13.7799 383.087 14.4961C383.998 15.1471 384.682 16.0586 385.137 17.2305C384.682 17.2305 384.454 17.3932 384.454 17.7188C384.519 18.0443 384.617 18.4023 384.747 18.793C384.877 19.1836 384.942 19.5417 384.942 19.8672C384.942 20.1927 384.649 20.3555 384.063 20.3555C384.063 20.8112 384.291 21.0391 384.747 21.0391C385.203 21.0391 385.43 21.2669 385.43 21.7227C385.43 22.1133 385.333 22.4388 385.137 22.6992C385.007 22.8945 385.007 23.2526 385.137 23.7734C383.575 24.8151 381.817 25.8242 379.864 26.8008C377.976 27.7122 375.958 28.6888 373.809 29.7305C371.726 30.7721 369.578 31.9115 367.364 33.1484C365.216 34.3203 363.067 35.6875 360.919 37.25C358.77 38.8125 356.589 40.5378 354.376 42.4258C352.227 44.3138 350.144 46.332 348.126 48.4805C346.108 50.5638 344.22 52.7448 342.462 55.0234C340.704 57.237 339.206 59.418 337.97 61.5664C338.1 61.8919 338.262 62.1849 338.458 62.4453C338.718 62.7057 338.914 62.9987 339.044 63.3242C341.518 63.4544 343.829 63.4544 345.977 63.3242C348.126 63.1289 350.274 63.2591 352.423 63.7148C352.683 63.5195 352.846 63.2591 352.911 62.9336C352.976 62.6081 353.171 62.3802 353.497 62.25C357.924 61.7943 362.058 61.0781 365.899 60.1016C369.74 59.0599 373.647 58.0182 377.618 56.9766C376.446 56.5208 375.404 56.1628 374.493 55.9023C374.102 55.5117 374.102 55.1862 374.493 54.9258C374.949 54.6003 375.307 54.2747 375.567 53.9492C374.526 53.3633 373.647 52.582 372.93 51.6055C372.279 50.6289 371.889 49.3594 371.759 47.7969C372.214 47.4062 372.442 46.9505 372.442 46.4297C372.442 45.9089 372.214 45.4857 371.759 45.1602C371.433 45.0299 371.238 45.0299 371.173 45.1602C371.108 45.2904 371.042 45.4206 370.977 45.5508C370.977 45.681 370.912 45.8112 370.782 45.9414C370.717 46.0716 370.554 46.0716 370.294 45.9414C370.359 45.2253 370.522 44.6393 370.782 44.1836C371.042 43.7279 371.238 43.1745 371.368 42.5234L379.473 37.1523C380.32 37.8034 381.361 38.487 382.598 39.2031C383.835 39.9193 385.137 40.6354 386.505 41.3516C387.872 42.0677 389.272 42.8164 390.704 43.5977C392.136 44.3138 393.471 45.0299 394.708 45.7461C395.88 46.2669 396.889 46.918 397.735 47.6992C398.581 48.4154 399.395 49.1966 400.177 50.043C400.958 50.8242 401.739 51.6055 402.52 52.3867C403.302 53.168 404.246 53.819 405.352 54.3398C405.222 55.3815 405.287 56.2279 405.548 56.8789C405.808 57.5299 405.873 58.3112 405.743 59.2227C404.506 61.4362 403.009 63.3242 401.251 64.8867C399.493 66.3841 397.507 67.6862 395.294 68.793C393.145 69.8997 390.834 70.8438 388.36 71.625C385.886 72.3411 383.347 73.0573 380.743 73.7734C378.139 74.4245 375.502 75.1406 372.833 75.9219C370.229 76.638 367.657 77.4844 365.118 78.4609C364.011 78.4609 363.067 78.4935 362.286 78.5586C361.505 78.6237 360.756 78.7214 360.04 78.8516C359.324 78.9818 358.608 79.112 357.891 79.2422C357.175 79.3724 356.394 79.4701 355.548 79.5352C355.222 79.4701 354.994 79.5352 354.864 79.7305C354.799 79.9258 354.669 80.0885 354.473 80.2188C353.171 80.4141 351.999 80.5117 350.958 80.5117C349.916 80.5117 349.037 80.5117 348.321 80.5117C347.41 80.5117 346.466 80.6419 345.489 80.9023C344.512 81.1628 343.601 81.2604 342.755 81.1953C336.895 80.9349 332.305 78.8516 328.985 74.9453C325.665 71.0391 323.842 65.668 323.516 58.832C323.581 58.5065 323.516 58.3112 323.321 58.2461C323.126 58.1159 322.963 57.9857 322.833 57.8555ZM422.462 70.8438C421.746 73.4479 421.095 75.4336 420.509 76.8008C419.988 78.1029 419.174 79.4701 418.067 80.9023C417.221 80.7721 416.635 80.8698 416.309 81.1953C415.984 81.5208 415.626 81.8138 415.235 82.0742C414.649 82.2044 414.226 82.2044 413.966 82.0742C413.705 81.944 413.477 81.7812 413.282 81.5859C413.087 81.4557 412.826 81.293 412.501 81.0977C412.24 80.9674 411.817 80.9023 411.231 80.9023C411.101 80.3815 410.938 79.8932 410.743 79.4375C410.613 78.9818 410.19 78.819 409.473 78.9492C409.604 78.4284 409.636 78.0052 409.571 77.6797C409.506 77.2891 409.408 76.9635 409.278 76.7031C409.213 76.3776 409.148 76.0846 409.083 75.8242C409.018 75.4987 409.05 75.1081 409.18 74.6523C408.855 74.6523 408.595 74.4245 408.399 73.9688C408.204 73.513 407.976 73.0573 407.716 72.6016C407.911 71.4297 408.106 70.3229 408.302 69.2812C408.497 68.2396 408.725 67.263 408.985 66.3516C409.311 65.4401 409.571 64.5286 409.766 63.6172C409.962 62.7057 409.864 61.7617 409.473 60.7852C409.734 60.9805 409.929 60.9479 410.059 60.6875C410.19 60.362 410.287 59.9714 410.352 59.5156C410.417 58.9948 410.45 58.5065 410.45 58.0508C410.45 57.5299 410.417 57.1068 410.352 56.7812C411.003 55.0885 411.524 53.3633 411.915 51.6055C412.371 49.7826 412.761 47.9922 413.087 46.2344C413.477 44.4766 413.868 42.7513 414.259 41.0586C414.649 39.3659 415.17 37.8034 415.821 36.3711C416.537 36.2409 417.318 36.3385 418.165 36.6641C419.076 36.9245 419.63 37.2826 419.825 37.7383C421.518 36.4362 423.015 34.8737 424.317 33.0508C425.619 31.1628 426.954 29.3398 428.321 27.582C429.688 25.8242 431.186 24.2617 432.813 22.8945C434.506 21.5273 436.622 20.7135 439.161 20.4531C440.463 21.4297 441.895 22.4388 443.458 23.4805C445.085 24.457 446.42 25.7591 447.462 27.3867C447.983 27.6471 448.406 27.9401 448.731 28.2656C449.122 28.526 449.578 28.819 450.098 29.1445V30.3164C450.88 31.0326 451.498 31.8789 451.954 32.8555C452.475 33.7669 452.93 34.776 453.321 35.8828C453.712 36.9245 454.102 37.9987 454.493 39.1055C454.884 40.1471 455.339 41.1562 455.86 42.1328C455.73 42.4583 455.665 42.7513 455.665 43.0117C455.665 43.207 455.697 43.4349 455.762 43.6953C455.893 43.9557 455.99 44.2161 456.055 44.4766C456.121 44.737 456.121 45.0951 456.055 45.5508C455.86 48.4154 454.916 50.7266 453.223 52.4844C451.596 54.2422 449.61 55.707 447.266 56.8789C444.923 57.9857 442.416 58.9297 439.747 59.7109C437.078 60.4922 434.669 61.3385 432.52 62.25C432.52 62.5104 432.618 62.6406 432.813 62.6406C433.074 62.6406 433.171 62.8034 433.106 63.1289C434.669 64.1055 435.906 64.8867 436.817 65.4727C437.729 66.0586 438.575 66.5469 439.356 66.9375C440.203 67.3281 441.081 67.6862 441.993 68.0117C442.97 68.2721 444.304 68.5977 445.997 68.9883C447.69 69.3789 448.992 69.7044 449.903 69.9648C450.88 70.1602 451.759 70.3555 452.54 70.5508C453.321 70.681 454.102 70.8112 454.884 70.9414C455.73 71.0065 456.902 71.1042 458.399 71.2344C458.985 71.8203 459.473 72.5365 459.864 73.3828C460.32 74.1641 460.613 74.9779 460.743 75.8242C460.873 76.6055 460.906 77.3867 460.841 78.168C460.776 78.8841 460.548 79.4701 460.157 79.9258C460.222 80.1211 460.352 80.2188 460.548 80.2188C460.808 80.1536 461.068 80.1536 461.329 80.2188C460.938 80.4792 460.613 80.8047 460.352 81.1953C460.092 81.5859 459.831 81.9766 459.571 82.3672C459.311 82.7578 459.018 83.0833 458.692 83.3438C458.367 83.6693 457.911 83.8646 457.325 83.9297C455.307 84.7109 452.768 84.7435 449.708 84.0273C446.648 83.3763 442.774 82.1393 438.087 80.3164C435.743 79.4049 433.822 78.6237 432.325 77.9727C430.893 77.2565 429.623 76.5729 428.516 75.9219C427.475 75.2057 426.498 74.457 425.587 73.6758C424.74 72.8945 423.699 71.9505 422.462 70.8438ZM436.427 37.3477C435.71 38.3893 434.897 39.3333 433.985 40.1797C433.139 41.026 432.292 41.9049 431.446 42.8164C430.665 43.6628 429.949 44.6393 429.298 45.7461C428.647 46.7878 428.191 48.0247 427.93 49.457C430.209 49.1966 432.585 48.5781 435.059 47.6016C437.533 46.5599 439.877 45.5833 442.091 44.6719C441.83 42.6536 441.114 41.026 439.942 39.7891C438.835 38.5521 437.664 37.7383 436.427 37.3477ZM517.501 72.7969C517.11 73.9036 516.524 75.043 515.743 76.2148C515.027 77.3216 514.148 78.3307 513.106 79.2422C512.13 80.0885 511.023 80.8047 509.786 81.3906C508.549 81.9766 507.247 82.3021 505.88 82.3672C505.033 82.1719 504.447 81.944 504.122 81.6836C503.861 81.4883 503.568 81.293 503.243 81.0977C503.048 80.9674 502.852 80.8698 502.657 80.8047C502.527 80.6745 502.397 80.5768 502.266 80.5117L501.095 80.0234L501.485 78.7539C501.615 78.2331 501.583 77.8424 501.387 77.582C501.192 77.2565 500.802 76.8333 500.216 76.3125C500.02 76.1172 499.825 75.9219 499.63 75.7266C499.434 75.5312 499.272 75.3359 499.141 75.1406L497.481 73.2852L500.118 72.6016C501.746 72.1458 502.82 71.5599 503.341 70.8438C503.927 70.1276 504.154 68.9232 504.024 67.2305C502.722 66.9701 501.615 66.9375 500.704 67.1328C499.858 67.3281 498.979 67.556 498.067 67.8164C496.895 68.1419 495.691 68.4349 494.454 68.6953C493.282 68.8906 491.98 68.9883 490.548 68.9883C490.027 68.9883 489.539 68.9883 489.083 68.9883C488.627 68.9232 488.139 68.8581 487.618 68.793L486.641 68.5977C486.511 67.8815 486.381 67.4909 486.251 67.4258C486.121 67.2956 485.99 67.1654 485.86 67.0352C485.535 66.7096 485.177 66.2865 484.786 65.7656C484.46 65.1797 484.395 64.4635 484.591 63.6172C484.265 63.0312 484.07 62.4453 484.005 61.8594C483.614 62.6406 483.321 63.4544 483.126 64.3008L482.735 65.2773L481.759 65.4727C481.628 65.5378 481.531 65.7005 481.466 65.9609C481.401 66.1562 481.368 66.319 481.368 66.4492L480.88 68.1094C480.749 68.2396 480.619 68.3698 480.489 68.5C480.359 68.5651 480.229 68.6628 480.098 68.793C479.968 69.3789 479.805 69.9648 479.61 70.5508C479.415 71.1367 479.22 71.6901 479.024 72.2109C478.699 73.0573 478.406 73.9036 478.145 74.75C477.95 75.5312 477.885 76.3125 477.95 77.0938L477.559 78.168C477.234 78.5586 476.876 78.8841 476.485 79.1445C476.095 79.3398 475.704 79.5352 475.313 79.7305C475.183 79.8607 474.988 79.9909 474.727 80.1211C474.532 80.1862 474.369 80.2513 474.239 80.3164L473.946 81.3906L472.774 81.5859C472.058 81.7161 471.537 81.8138 471.212 81.8789C470.951 81.944 470.626 81.9766 470.235 81.9766L469.259 81.8789C468.542 81.293 467.989 80.8372 467.598 80.5117C467.208 80.1211 466.752 79.763 466.231 79.4375C465.645 78.6562 465.32 78.0703 465.255 77.6797C465.19 77.2891 465.124 76.931 465.059 76.6055C464.929 76.2148 464.864 75.8893 464.864 75.6289C464.799 75.3685 464.701 75.1732 464.571 75.043L463.302 73.8711L464.376 72.9922L464.473 71.332C465.776 68.0117 467.143 64.8216 468.575 61.7617C470.072 58.7018 471.602 55.5768 473.165 52.3867C473.686 51.3451 474.174 50.3034 474.63 49.2617C475.151 48.2201 475.671 47.1784 476.192 46.1367C476.127 45.9414 476.095 45.7135 476.095 45.4531C476.095 45.1927 476.16 44.8997 476.29 44.5742C477.006 43.4674 477.592 42.4909 478.048 41.6445C478.503 40.7331 478.959 39.8216 479.415 38.9102C479.936 37.8034 480.456 36.7292 480.977 35.6875C481.563 34.6458 482.279 33.5716 483.126 32.4648L484.688 31.7812C484.884 31.7161 485.111 31.651 485.372 31.5859C485.632 31.4557 485.925 31.3906 486.251 31.3906L487.716 31.5859C489.539 30.7396 491.134 29.5677 492.501 28.0703C493.868 26.5078 495.268 24.6523 496.7 22.5039L497.677 21.1367L498.946 21.918C499.272 22.1133 499.727 22.3086 500.313 22.5039C500.899 22.6341 501.518 22.7969 502.169 22.9922C503.341 23.2526 504.447 23.5456 505.489 23.8711C506.531 24.1966 507.377 24.6849 508.028 25.3359C508.419 26.3776 508.647 27.1589 508.712 27.6797C508.777 28.2005 508.874 28.7214 509.005 29.2422C509.2 30.349 509.363 31.4557 509.493 32.5625C509.688 33.6693 509.818 34.9062 509.884 36.2734C510.209 37.3802 510.47 38.487 510.665 39.5938C510.925 40.6354 511.153 41.7096 511.348 42.8164C511.674 44.3789 511.999 45.9089 512.325 47.4062C512.651 48.8385 513.074 50.2057 513.595 51.5078C514.115 51.5078 514.441 51.5404 514.571 51.6055C514.897 51.4753 515.222 51.3776 515.548 51.3125C515.938 51.2474 516.361 51.1823 516.817 51.1172L517.891 51.0195L518.282 51.9961C518.347 52.3216 518.673 52.6471 519.259 52.9727C520.105 53.0378 520.723 53.2331 521.114 53.5586C521.505 53.819 521.863 54.112 522.188 54.4375C522.449 54.6979 522.709 54.8932 522.97 55.0234L524.434 55.6094L523.653 57.0742C523.002 58.2461 522.058 59.3854 520.821 60.4922C519.649 61.5339 518.315 62.4128 516.817 63.1289C516.882 63.5195 516.915 63.9102 516.915 64.3008C516.98 64.6263 517.078 64.9844 517.208 65.375C517.403 66.4818 517.566 67.6211 517.696 68.793C517.826 69.9648 517.826 71.1693 517.696 72.4062L517.501 72.7969ZM489.278 55.9023C491.231 55.7721 492.989 55.6419 494.552 55.5117C496.179 55.3164 497.97 55.0234 499.923 54.6328C499.467 52.6797 498.979 50.6615 498.458 48.5781C497.937 46.4297 497.384 44.3138 496.798 42.2305L496.212 43.207C494.91 44.5742 493.64 46.1042 492.403 47.7969C491.231 49.4896 490.222 51.0846 489.376 52.582C488.985 53.168 488.595 53.7539 488.204 54.3398C487.813 54.9258 487.455 55.5117 487.13 56.0977C487.52 56.0326 487.878 56 488.204 56C488.595 56 488.953 55.9674 489.278 55.9023ZM542.618 77.6797C542.227 79.8932 541.121 81.4232 539.298 82.2695C538.451 82.3346 537.8 82.3021 537.345 82.1719C536.954 82.0417 536.531 81.8789 536.075 81.6836C535.489 81.4232 534.968 81.2604 534.512 81.1953L533.438 80.4141C533.308 80.0885 533.145 79.763 532.95 79.4375C532.755 79.112 532.527 78.7865 532.266 78.4609C531.746 77.8099 531.225 76.9961 530.704 76.0195C530.313 74.1315 530.248 72.569 530.509 71.332C530.769 70.0299 531.095 68.7604 531.485 67.5234C531.615 67.1328 531.746 66.7422 531.876 66.3516C532.006 65.8958 532.136 65.4727 532.266 65.082C530.574 64.1706 529.304 62.8685 528.458 61.1758C527.611 59.4831 527.123 57.8555 526.993 56.293C527.188 55.056 527.546 54.0794 528.067 53.3633C528.588 52.582 529.174 51.9635 529.825 51.5078C530.541 51.0521 531.257 50.694 531.973 50.4336C532.755 50.1732 533.503 49.9453 534.22 49.75L535.489 50.2383C536.075 50.8242 536.661 51.2799 537.247 51.6055C537.703 51.4102 537.996 51.1172 538.126 50.7266C538.321 50.2708 538.484 49.7826 538.614 49.2617C538.809 48.6758 539.005 48.0898 539.2 47.5039C539.46 46.918 539.753 46.332 540.079 45.7461C540.014 44.8997 540.144 44.1185 540.47 43.4023C540.014 43.0768 539.526 42.8815 539.005 42.8164C538.874 42.8164 538.549 42.7513 538.028 42.6211C537.247 42.0352 536.693 41.5469 536.368 41.1562C536.108 40.7005 535.847 40.2773 535.587 39.8867C535.196 39.0404 534.708 38.3568 534.122 37.8359L533.145 37.1523L533.634 36.1758C533.764 36.0456 533.829 35.8828 533.829 35.6875C533.829 35.4922 533.699 35.1992 533.438 34.8086C533.308 34.0924 533.308 33.6042 533.438 33.3438L533.634 32.3672C534.154 31.651 534.415 31.2604 534.415 31.1953L535.294 30.3164C536.596 29.9909 537.865 29.6328 539.102 29.2422C540.404 28.7865 541.706 28.3307 543.009 27.875C544.246 27.4844 545.483 27.0938 546.72 26.7031C548.022 26.2474 549.324 25.8568 550.626 25.5312C551.081 25.2057 551.57 25.0104 552.091 24.9453C552.611 24.8151 553.1 24.7174 553.555 24.6523C553.946 24.5872 554.304 24.5547 554.63 24.5547C554.955 24.4896 555.183 24.3594 555.313 24.1641C556.095 23.9036 557.006 23.6107 558.048 23.2852C559.675 22.8294 561.824 22.3411 564.493 21.8203C567.162 21.2344 570.157 20.7786 573.477 20.4531L575.137 20.3555C575.463 20.4206 575.789 20.4531 576.114 20.4531C576.44 20.388 576.765 20.3555 577.091 20.3555C580.02 20.3555 581.876 21.2344 582.657 22.9922C583.243 23.3177 583.764 23.6758 584.22 24.0664C584.675 24.457 585.098 24.8477 585.489 25.2383C585.684 25.4987 585.88 25.7266 586.075 25.9219C586.335 26.1172 586.531 26.2474 586.661 26.3125C587.768 28.0052 588.126 29.5026 587.735 30.8047C587.149 31.651 586.401 32.1393 585.489 32.2695L584.415 32.8555C583.699 32.7904 583.145 32.7578 582.755 32.7578C582.429 32.7578 582.071 32.7578 581.68 32.7578C580.053 32.7578 578.165 32.8555 576.016 33.0508C573.868 33.2461 571.654 33.5391 569.376 33.9297C567.162 34.2552 565.014 34.6784 562.93 35.1992C560.847 35.7201 559.024 36.2734 557.462 36.8594L555.704 37.7383C555.248 38.4544 554.988 39.0404 554.923 39.4961C554.858 39.8867 554.792 40.2773 554.727 40.668C554.662 40.9284 554.597 41.1888 554.532 41.4492C554.532 41.7096 554.499 42.0026 554.434 42.3281C553.328 43.6953 552.774 45.3229 552.774 47.2109C552.318 47.9922 552.026 48.5781 551.895 48.9688C551.765 49.2943 551.765 49.7174 551.895 50.2383C553.132 50.7591 554.304 50.9544 555.411 50.8242C556.518 50.694 557.624 50.5312 558.731 50.3359C560.229 50.0755 561.759 49.8477 563.321 49.6523C564.949 49.457 566.609 49.3594 568.302 49.3594H571.427L570.645 50.1406L571.134 51.5078C571.524 51.7031 571.785 51.8333 571.915 51.8984C572.11 51.9635 572.305 52.0612 572.501 52.1914L572.989 53.0703C573.249 53.2005 573.477 53.4284 573.673 53.7539C573.933 54.0794 574.096 54.5677 574.161 55.2188L570.157 60.8828L568.79 61.2734C567.683 61.2083 566.706 61.3385 565.86 61.6641C565.404 61.7943 564.949 61.9245 564.493 62.0547C564.037 62.1198 563.549 62.1523 563.028 62.1523C561.726 62.4128 560.619 62.6081 559.708 62.7383C558.861 62.8685 557.983 62.9987 557.071 63.1289C555.899 63.2591 554.76 63.4544 553.653 63.7148C552.546 63.9102 551.505 64.2031 550.528 64.5938C549.877 64.5938 549.421 64.5938 549.161 64.5938C548.64 64.5938 548.087 64.6914 547.501 64.8867C546.98 65.0169 546.492 65.1471 546.036 65.2773C545.71 65.5378 545.483 65.8307 545.352 66.1562C545.222 66.4167 545.092 66.7096 544.962 67.0352C544.701 67.9466 544.343 68.6953 543.887 69.2812V70.7461C543.367 71.3971 543.041 71.918 542.911 72.3086C542.846 72.6341 542.748 72.9596 542.618 73.2852C542.488 73.4805 542.39 73.6758 542.325 73.8711C542.26 74.0013 542.227 74.1641 542.227 74.3594C542.748 75.3359 542.878 76.4427 542.618 77.6797ZM593.126 77.6797C592.735 79.8932 591.628 81.4232 589.805 82.2695C588.959 82.3346 588.308 82.3021 587.852 82.1719C587.462 82.0417 587.039 81.8789 586.583 81.6836C585.997 81.4232 585.476 81.2604 585.02 81.1953L583.946 80.4141C583.816 80.0885 583.653 79.763 583.458 79.4375C583.262 79.112 583.035 78.7865 582.774 78.4609C582.253 77.8099 581.733 76.9961 581.212 76.0195C580.821 74.1315 580.756 72.569 581.016 71.332C581.277 70.0299 581.602 68.7604 581.993 67.5234C582.123 67.1328 582.253 66.7422 582.384 66.3516C582.514 65.8958 582.644 65.4727 582.774 65.082C581.081 64.1706 579.812 62.8685 578.966 61.1758C578.119 59.4831 577.631 57.8555 577.501 56.293C577.696 55.056 578.054 54.0794 578.575 53.3633C579.096 52.582 579.682 51.9635 580.333 51.5078C581.049 51.0521 581.765 50.694 582.481 50.4336C583.262 50.1732 584.011 49.9453 584.727 49.75L585.997 50.2383C586.583 50.8242 587.169 51.2799 587.755 51.6055C588.21 51.4102 588.503 51.1172 588.634 50.7266C588.829 50.2708 588.992 49.7826 589.122 49.2617C589.317 48.6758 589.512 48.0898 589.708 47.5039C589.968 46.918 590.261 46.332 590.587 45.7461C590.522 44.8997 590.652 44.1185 590.977 43.4023C590.522 43.0768 590.033 42.8815 589.512 42.8164C589.382 42.8164 589.057 42.7513 588.536 42.6211C587.755 42.0352 587.201 41.5469 586.876 41.1562C586.615 40.7005 586.355 40.2773 586.095 39.8867C585.704 39.0404 585.216 38.3568 584.63 37.8359L583.653 37.1523L584.141 36.1758C584.272 36.0456 584.337 35.8828 584.337 35.6875C584.337 35.4922 584.206 35.1992 583.946 34.8086C583.816 34.0924 583.816 33.6042 583.946 33.3438L584.141 32.3672C584.662 31.651 584.923 31.2604 584.923 31.1953L585.802 30.3164C587.104 29.9909 588.373 29.6328 589.61 29.2422C590.912 28.7865 592.214 28.3307 593.516 27.875C594.753 27.4844 595.99 27.0938 597.227 26.7031C598.529 26.2474 599.831 25.8568 601.134 25.5312C601.589 25.2057 602.078 25.0104 602.598 24.9453C603.119 24.8151 603.608 24.7174 604.063 24.6523C604.454 24.5872 604.812 24.5547 605.137 24.5547C605.463 24.4896 605.691 24.3594 605.821 24.1641C606.602 23.9036 607.514 23.6107 608.555 23.2852C610.183 22.8294 612.331 22.3411 615.001 21.8203C617.67 21.2344 620.665 20.7786 623.985 20.4531L625.645 20.3555C625.971 20.4206 626.296 20.4531 626.622 20.4531C626.947 20.388 627.273 20.3555 627.598 20.3555C630.528 20.3555 632.384 21.2344 633.165 22.9922C633.751 23.3177 634.272 23.6758 634.727 24.0664C635.183 24.457 635.606 24.8477 635.997 25.2383C636.192 25.4987 636.387 25.7266 636.583 25.9219C636.843 26.1172 637.039 26.2474 637.169 26.3125C638.276 28.0052 638.634 29.5026 638.243 30.8047C637.657 31.651 636.908 32.1393 635.997 32.2695L634.923 32.8555C634.206 32.7904 633.653 32.7578 633.262 32.7578C632.937 32.7578 632.579 32.7578 632.188 32.7578C630.561 32.7578 628.673 32.8555 626.524 33.0508C624.376 33.2461 622.162 33.5391 619.884 33.9297C617.67 34.2552 615.522 34.6784 613.438 35.1992C611.355 35.7201 609.532 36.2734 607.97 36.8594L606.212 37.7383C605.756 38.4544 605.496 39.0404 605.43 39.4961C605.365 39.8867 605.3 40.2773 605.235 40.668C605.17 40.9284 605.105 41.1888 605.04 41.4492C605.04 41.7096 605.007 42.0026 604.942 42.3281C603.835 43.6953 603.282 45.3229 603.282 47.2109C602.826 47.9922 602.533 48.5781 602.403 48.9688C602.273 49.2943 602.273 49.7174 602.403 50.2383C603.64 50.7591 604.812 50.9544 605.919 50.8242C607.026 50.694 608.132 50.5312 609.239 50.3359C610.736 50.0755 612.266 49.8477 613.829 49.6523C615.456 49.457 617.117 49.3594 618.809 49.3594H621.934L621.153 50.1406L621.641 51.5078C622.032 51.7031 622.292 51.8333 622.423 51.8984C622.618 51.9635 622.813 52.0612 623.009 52.1914L623.497 53.0703C623.757 53.2005 623.985 53.4284 624.18 53.7539C624.441 54.0794 624.604 54.5677 624.669 55.2188L620.665 60.8828L619.298 61.2734C618.191 61.2083 617.214 61.3385 616.368 61.6641C615.912 61.7943 615.456 61.9245 615.001 62.0547C614.545 62.1198 614.057 62.1523 613.536 62.1523C612.234 62.4128 611.127 62.6081 610.216 62.7383C609.369 62.8685 608.49 62.9987 607.579 63.1289C606.407 63.2591 605.268 63.4544 604.161 63.7148C603.054 63.9102 602.012 64.2031 601.036 64.5938C600.385 64.5938 599.929 64.5938 599.669 64.5938C599.148 64.5938 598.595 64.6914 598.009 64.8867C597.488 65.0169 596.999 65.1471 596.544 65.2773C596.218 65.5378 595.99 65.8307 595.86 66.1562C595.73 66.4167 595.6 66.7096 595.47 67.0352C595.209 67.9466 594.851 68.6953 594.395 69.2812V70.7461C593.874 71.3971 593.549 71.918 593.419 72.3086C593.354 72.6341 593.256 72.9596 593.126 73.2852C592.996 73.4805 592.898 73.6758 592.833 73.8711C592.768 74.0013 592.735 74.1641 592.735 74.3594C593.256 75.3359 593.386 76.4427 593.126 77.6797ZM650.665 74.1641C650.99 76.1172 650.86 77.6471 650.274 78.7539C649.753 79.8607 648.972 80.6745 647.93 81.1953C646.954 81.7812 645.815 82.1068 644.512 82.1719C643.21 82.237 641.973 82.1719 640.802 81.9766C640.151 81.0651 639.565 79.9258 639.044 78.5586C638.523 77.1914 638.035 75.7917 637.579 74.3594C637.123 72.862 636.7 71.3971 636.309 69.9648C635.984 68.5326 635.691 67.263 635.43 66.1562C635.756 65.375 635.951 64.4961 636.016 63.5195C636.147 62.4779 636.212 61.4362 636.212 60.3945C636.277 59.3529 636.309 58.3112 636.309 57.2695C636.374 56.1628 636.472 55.1211 636.602 54.1445C637.058 51.4102 637.709 48.806 638.555 46.332C639.467 43.8581 640.183 41.2865 640.704 38.6172C640.834 38.0312 640.769 37.4779 640.509 36.957C640.313 36.4362 640.281 35.9479 640.411 35.4922C640.476 35.2318 640.671 35.069 640.997 35.0039C641.322 34.8737 641.518 34.6458 641.583 34.3203C641.778 33.6042 641.811 33.0182 641.68 32.5625C641.615 32.1068 641.746 31.5534 642.071 30.9023C642.397 30.3815 642.787 29.6328 643.243 28.6562C643.764 27.6146 643.959 26.5404 643.829 25.4336C644.415 25.043 644.968 24.5872 645.489 24.0664C646.01 23.5456 646.531 23.0898 647.052 22.6992C647.637 22.2435 648.256 21.8529 648.907 21.5273C649.623 21.2018 650.47 21.0391 651.446 21.0391C651.967 21.6901 652.292 22.4062 652.423 23.1875C652.618 23.9688 652.781 24.75 652.911 25.5312C653.106 26.3125 653.367 27.0612 653.692 27.7773C654.018 28.4284 654.571 28.9492 655.352 29.3398C655.352 29.8607 655.352 30.5117 655.352 31.293C655.352 32.0742 655.385 32.8555 655.45 33.6367C655.515 34.3529 655.645 35.0365 655.841 35.6875C656.101 36.2734 656.492 36.6641 657.012 36.8594C655.841 39.9844 654.734 43.0768 653.692 46.1367C652.716 49.1966 651.902 52.2891 651.251 55.4141C650.6 58.474 650.177 61.5664 649.981 64.6914C649.851 67.8164 650.079 70.974 650.665 74.1641ZM722.559 34.0273C720.932 34.0273 719.174 34.1576 717.286 34.418C715.398 34.6133 713.542 34.8411 711.72 35.1016C710.417 35.2969 709.148 35.4596 707.911 35.5898C706.739 35.7201 705.665 35.8177 704.688 35.8828C704.233 37.3151 703.777 38.5846 703.321 39.6914C702.865 40.7982 702.377 41.8724 701.856 42.9141C701.335 44.0208 700.847 45.1602 700.391 46.332C700.001 47.4388 699.61 48.6432 699.22 49.9453C698.568 50.987 698.015 51.9635 697.559 52.875C697.169 53.7214 696.843 54.6979 696.583 55.8047C695.802 56.7812 695.216 57.8229 694.825 58.9297C694.434 59.9714 694.141 60.8828 693.946 61.6641L693.555 62.8359C693.165 63.2266 692.937 63.5521 692.872 63.8125C692.807 64.0078 692.644 64.2031 692.384 64.3984C692.318 65.1146 692.091 65.8307 691.7 66.5469C691.57 66.8724 691.472 67.1979 691.407 67.5234C691.342 67.7839 691.309 67.9792 691.309 68.1094C691.309 68.7604 691.147 69.1836 690.821 69.3789C690.886 69.7044 690.886 70.0625 690.821 70.4531C690.756 70.7786 690.691 71.1042 690.626 71.4297C690.43 72.2109 690.365 72.8294 690.43 73.2852C690.626 73.5456 690.789 73.7734 690.919 73.9688C691.114 74.1641 691.244 74.4245 691.309 74.75C691.7 75.0104 691.993 75.1732 692.188 75.2383C692.449 75.4336 692.839 75.6615 693.36 75.9219L694.239 76.8984C694.565 78.7865 694.272 80.2839 693.36 81.3906C692.384 82.6276 690.723 83.2461 688.38 83.2461H687.208C686.882 82.9206 686.687 82.6602 686.622 82.4648C686.101 82.2695 685.678 82.1068 685.352 81.9766C685.027 81.8464 684.734 81.5859 684.473 81.1953C683.627 80.8047 682.943 80.4792 682.423 80.2188L681.544 79.7305C681.544 79.0143 681.544 78.6237 681.544 78.5586C681.088 77.9727 680.73 77.3216 680.47 76.6055C680.274 75.8893 680.111 75.1732 679.981 74.457C679.851 73.8711 679.688 73.3177 679.493 72.7969C679.363 72.276 679.167 71.8203 678.907 71.4297C678.777 67.6536 679.135 64.4635 679.981 61.8594C680.828 59.2552 681.706 56.7487 682.618 54.3398C683.139 53.0378 683.66 51.7357 684.18 50.4336C684.701 49.0664 685.157 47.6667 685.548 46.2344L686.427 45.2578C686.882 44.2161 687.24 43.3698 687.501 42.7188C687.826 42.0026 688.152 41.2865 688.477 40.5703C688.673 40.1146 688.835 39.6914 688.966 39.3008C689.161 38.8451 689.324 38.4544 689.454 38.1289C689.063 38.1289 688.705 38.1615 688.38 38.2266C688.054 38.2266 687.729 38.2591 687.403 38.3242C687.012 38.3893 686.654 38.4544 686.329 38.5195C686.003 38.5195 685.678 38.5195 685.352 38.5195C684.897 38.5195 684.571 38.487 684.376 38.4219C683.66 38.7474 682.878 38.9102 682.032 38.9102H681.055C680.86 38.9102 680.665 38.9102 680.47 38.9102C680.339 38.8451 680.209 38.8125 680.079 38.8125C679.428 38.8125 678.907 38.9102 678.516 39.1055C677.735 39.1055 676.986 39.1055 676.27 39.1055H675.294C675.164 39.1055 675.001 39.138 674.805 39.2031C674.61 39.2031 674.447 39.2031 674.317 39.2031C673.861 39.2031 673.373 39.1706 672.852 39.1055C672.331 38.9753 671.778 38.7474 671.192 38.4219C670.411 37.3802 669.89 36.8268 669.63 36.7617L668.751 35.5898C668.686 35.1992 668.588 34.8411 668.458 34.5156C668.328 34.125 668.197 33.7018 668.067 33.2461C667.807 32.5951 667.546 31.9115 667.286 31.1953C667.091 30.4141 666.993 29.5026 666.993 28.4609C667.058 27.9401 667.188 27.5495 667.384 27.2891C667.579 27.0286 667.742 26.8008 667.872 26.6055L668.165 25.1406L669.434 25.2383H672.169C674.252 25.2383 676.368 25.1732 678.516 25.043C680.665 24.8477 682.878 24.6523 685.157 24.457C686.459 24.3268 687.761 24.1966 689.063 24.0664C690.43 23.9362 691.83 23.806 693.262 23.6758C693.523 23.0898 693.783 22.5365 694.044 22.0156L695.02 21.5273C696.192 21.4622 697.006 21.625 697.462 22.0156C697.983 22.3411 698.406 22.6667 698.731 22.9922C700.164 22.862 701.596 22.7318 703.028 22.6016C704.526 22.4062 706.023 22.1784 707.52 21.918C709.734 21.5924 711.947 21.2995 714.161 21.0391C716.44 20.7786 718.621 20.6484 720.704 20.6484C721.615 20.6484 722.494 20.681 723.341 20.7461C724.187 20.8112 724.968 20.9089 725.684 21.0391L726.661 21.7227C726.856 22.1133 727.117 22.4714 727.442 22.7969C727.833 23.1224 728.223 23.4479 728.614 23.7734C729.395 24.4896 730.177 25.3359 730.958 26.3125C731.739 27.2891 732.032 28.7214 731.837 30.6094C731.316 31.3906 730.925 31.8464 730.665 31.9766L729.786 33.1484L728.809 33.0508C728.419 33.0508 728.061 33.1159 727.735 33.2461C727.41 33.3112 727.084 33.4089 726.759 33.5391C726.498 33.6693 726.238 33.7995 725.977 33.9297C725.717 33.9948 725.424 34.0599 725.098 34.125C724.512 34.125 724.024 34.125 723.634 34.125C723.308 34.0599 722.95 34.0273 722.559 34.0273ZM740.645 74.1641C740.971 76.1172 740.841 77.6471 740.255 78.7539C739.734 79.8607 738.953 80.6745 737.911 81.1953C736.934 81.7812 735.795 82.1068 734.493 82.1719C733.191 82.237 731.954 82.1719 730.782 81.9766C730.131 81.0651 729.545 79.9258 729.024 78.5586C728.503 77.1914 728.015 75.7917 727.559 74.3594C727.104 72.862 726.68 71.3971 726.29 69.9648C725.964 68.5326 725.671 67.263 725.411 66.1562C725.736 65.375 725.932 64.4961 725.997 63.5195C726.127 62.4779 726.192 61.4362 726.192 60.3945C726.257 59.3529 726.29 58.3112 726.29 57.2695C726.355 56.1628 726.453 55.1211 726.583 54.1445C727.039 51.4102 727.69 48.806 728.536 46.332C729.447 43.8581 730.164 41.2865 730.684 38.6172C730.815 38.0312 730.749 37.4779 730.489 36.957C730.294 36.4362 730.261 35.9479 730.391 35.4922C730.456 35.2318 730.652 35.069 730.977 35.0039C731.303 34.8737 731.498 34.6458 731.563 34.3203C731.759 33.6042 731.791 33.0182 731.661 32.5625C731.596 32.1068 731.726 31.5534 732.052 30.9023C732.377 30.3815 732.768 29.6328 733.223 28.6562C733.744 27.6146 733.94 26.5404 733.809 25.4336C734.395 25.043 734.949 24.5872 735.47 24.0664C735.99 23.5456 736.511 23.0898 737.032 22.6992C737.618 22.2435 738.236 21.8529 738.887 21.5273C739.604 21.2018 740.45 21.0391 741.427 21.0391C741.947 21.6901 742.273 22.4062 742.403 23.1875C742.598 23.9688 742.761 24.75 742.891 25.5312C743.087 26.3125 743.347 27.0612 743.673 27.7773C743.998 28.4284 744.552 28.9492 745.333 29.3398C745.333 29.8607 745.333 30.5117 745.333 31.293C745.333 32.0742 745.365 32.8555 745.43 33.6367C745.496 34.3529 745.626 35.0365 745.821 35.6875C746.081 36.2734 746.472 36.6641 746.993 36.8594C745.821 39.9844 744.714 43.0768 743.673 46.1367C742.696 49.1966 741.882 52.2891 741.231 55.4141C740.58 58.474 740.157 61.5664 739.962 64.6914C739.831 67.8164 740.059 70.974 740.645 74.1641Z" fill="#70FF00"/>
<path d="M331.622 165.367C330.971 165.367 329.962 165.27 328.595 165.074C327.553 163.967 326.609 162.47 325.762 160.582C324.981 158.629 324.363 156.578 323.907 154.43C323.516 152.216 323.321 150.035 323.321 147.887C323.386 145.673 323.777 143.72 324.493 142.027C324.493 141.962 324.786 141.181 325.372 139.684C326.023 138.186 326.837 136.298 327.813 134.02C328.79 131.676 329.897 129.104 331.134 126.305C332.371 123.44 333.608 120.641 334.845 117.906C336.081 115.172 337.253 112.698 338.36 110.484C339.532 108.206 340.541 106.448 341.387 105.211C341.973 104.299 342.494 103.421 342.95 102.574C343.471 101.728 343.959 100.947 344.415 100.23C345.131 99.0586 345.782 97.9844 346.368 97.0078C347.019 95.9661 347.703 95.0547 348.419 94.2734C349.2 93.4271 350.046 92.7109 350.958 92.125C351.869 91.474 352.976 90.9206 354.278 90.4648C355.059 90.7904 355.743 91.1484 356.329 91.5391C356.915 91.8646 357.436 92.2878 357.891 92.8086L358.184 94.1758C358.315 94.6315 358.51 94.957 358.77 95.1523C359.096 95.2826 359.356 95.3477 359.552 95.3477C360.398 95.543 361.114 95.7708 361.7 96.0312C362.351 96.2266 363.035 96.3568 363.751 96.4219C364.011 96.8125 364.239 97.2031 364.434 97.5938C364.695 97.9844 364.955 98.3424 365.216 98.668C366.518 100.556 367.592 102.379 368.438 104.137C369.285 105.895 369.285 107.815 368.438 109.898L368.536 110.973C368.861 111.428 369.024 111.852 369.024 112.242C369.024 112.633 368.959 113.186 368.829 113.902C368.764 114.423 368.699 115.009 368.634 115.66C368.634 116.246 368.731 116.897 368.927 117.613L369.61 118.395C370.652 118.915 371.661 119.176 372.637 119.176C373.94 119.176 375.111 118.883 376.153 118.297C377.195 117.711 378.171 117.125 379.083 116.539C379.799 116.018 380.45 115.595 381.036 115.27C381.687 114.944 382.305 114.716 382.891 114.586C384.259 113.284 385.496 112.145 386.602 111.168C387.774 110.126 388.979 109.085 390.216 108.043C392.559 106.155 394.838 104.137 397.052 101.988C399.265 99.7747 401.023 97.0404 402.325 93.7852C403.041 93.3294 403.855 93.1016 404.766 93.1016C405.678 93.1016 406.589 93.2969 407.501 93.6875C408.412 94.013 409.324 94.4036 410.235 94.8594C410.43 94.9896 410.593 95.0872 410.723 95.1523C410.919 95.2174 411.114 95.3151 411.309 95.4453C411.309 96.1615 411.602 96.8125 412.188 97.3984C412.514 97.6589 412.742 97.8216 412.872 97.8867C413.002 97.9518 413.132 98.0169 413.262 98.082C413.783 98.4076 414.206 98.7005 414.532 98.9609C414.923 99.2214 415.216 99.5794 415.411 100.035C415.997 101.793 416.973 103.16 418.341 104.137C418.21 104.853 418.243 105.569 418.438 106.285C418.634 106.936 418.861 107.587 419.122 108.238C419.252 108.499 419.35 108.759 419.415 109.02C419.48 109.215 419.578 109.475 419.708 109.801L417.559 109.605L417.852 111.754C418.048 112.861 417.95 114.098 417.559 115.465C417.234 116.832 416.843 117.906 416.387 118.688C416.518 120.641 416.583 122.203 416.583 123.375C416.583 124.482 416.518 125.523 416.387 126.5C416.257 127.477 416.029 128.421 415.704 129.332C415.443 130.178 415.085 131.09 414.63 132.066C414.89 137.014 414.304 141.539 412.872 145.641C411.505 149.742 410.007 153.583 408.38 157.164C408.184 157.62 407.989 158.043 407.794 158.434C407.598 158.824 407.436 159.215 407.305 159.605C406.589 159.801 405.938 160.029 405.352 160.289C404.766 160.549 404.213 160.842 403.692 161.168C402.976 161.624 402.26 162.014 401.544 162.34C400.828 162.6 400.079 162.73 399.298 162.73C396.173 160.452 394.545 156.513 394.415 150.914C394.35 145.315 395.554 138.186 398.028 129.527C398.484 129.202 398.679 128.714 398.614 128.062V126.988L397.637 126.891C397.312 126.891 397.019 126.923 396.759 126.988C396.498 127.053 396.303 127.346 396.173 127.867C394.089 129.365 391.811 130.927 389.337 132.555C386.928 134.117 384.421 135.582 381.817 136.949C379.213 138.251 376.544 139.358 373.809 140.27C371.14 141.116 368.536 141.539 365.997 141.539C359.486 141.539 354.571 138.219 351.251 131.578L350.372 129.82L349.395 131.383C349.2 131.708 348.842 132.359 348.321 133.336C347.865 134.247 347.377 135.322 346.856 136.559C346.401 137.796 345.977 139.065 345.587 140.367C345.261 141.669 345.164 142.809 345.294 143.785C344.512 144.501 343.731 145.315 342.95 146.227C342.234 147.138 341.713 148.18 341.387 149.352C341.257 149.677 341.225 150.003 341.29 150.328C341.355 150.589 341.453 150.882 341.583 151.207C341.518 151.663 341.387 151.988 341.192 152.184C340.997 152.379 340.769 152.574 340.509 152.77C340.183 153.095 339.858 153.453 339.532 153.844C339.206 154.169 338.914 154.56 338.653 155.016C338.523 155.406 338.425 155.829 338.36 156.285C338.295 156.676 338.23 157.034 338.165 157.359C338.165 158.076 338.067 158.564 337.872 158.824C337.221 160.191 336.635 161.331 336.114 162.242C335.658 163.089 335.203 163.74 334.747 164.195C334.291 164.651 333.803 164.944 333.282 165.074C332.826 165.27 332.273 165.367 331.622 165.367ZM445.899 157.164C446.225 159.117 446.095 160.647 445.509 161.754C444.988 162.861 444.206 163.674 443.165 164.195C442.188 164.781 441.049 165.107 439.747 165.172C438.445 165.237 437.208 165.172 436.036 164.977C435.385 164.065 434.799 162.926 434.278 161.559C433.757 160.191 433.269 158.792 432.813 157.359C432.358 155.862 431.934 154.397 431.544 152.965C431.218 151.533 430.925 150.263 430.665 149.156C430.99 148.375 431.186 147.496 431.251 146.52C431.381 145.478 431.446 144.436 431.446 143.395C431.511 142.353 431.544 141.311 431.544 140.27C431.609 139.163 431.706 138.121 431.837 137.145C432.292 134.41 432.943 131.806 433.79 129.332C434.701 126.858 435.417 124.286 435.938 121.617C436.068 121.031 436.003 120.478 435.743 119.957C435.548 119.436 435.515 118.948 435.645 118.492C435.71 118.232 435.906 118.069 436.231 118.004C436.557 117.874 436.752 117.646 436.817 117.32C437.012 116.604 437.045 116.018 436.915 115.562C436.85 115.107 436.98 114.553 437.305 113.902C437.631 113.382 438.022 112.633 438.477 111.656C438.998 110.615 439.193 109.54 439.063 108.434C439.649 108.043 440.203 107.587 440.723 107.066C441.244 106.546 441.765 106.09 442.286 105.699C442.872 105.243 443.49 104.853 444.141 104.527C444.858 104.202 445.704 104.039 446.68 104.039C447.201 104.69 447.527 105.406 447.657 106.188C447.852 106.969 448.015 107.75 448.145 108.531C448.341 109.312 448.601 110.061 448.927 110.777C449.252 111.428 449.805 111.949 450.587 112.34C450.587 112.861 450.587 113.512 450.587 114.293C450.587 115.074 450.619 115.855 450.684 116.637C450.749 117.353 450.88 118.036 451.075 118.688C451.335 119.273 451.726 119.664 452.247 119.859C451.075 122.984 449.968 126.077 448.927 129.137C447.95 132.197 447.136 135.289 446.485 138.414C445.834 141.474 445.411 144.566 445.216 147.691C445.085 150.816 445.313 153.974 445.899 157.164ZM482.247 146.227C481.661 146.357 481.238 146.715 480.977 147.301C480.717 147.822 480.456 148.375 480.196 148.961C480.001 149.547 479.773 150.1 479.512 150.621C479.317 151.077 478.992 151.305 478.536 151.305C478.471 151.826 478.276 152.281 477.95 152.672C477.69 153.062 477.429 153.486 477.169 153.941C476.908 154.332 476.713 154.788 476.583 155.309C476.453 155.764 476.518 156.318 476.778 156.969C476.257 157.359 475.932 157.913 475.802 158.629C475.671 159.345 475.509 160.029 475.313 160.68C475.183 161.331 474.923 161.884 474.532 162.34C474.141 162.796 473.425 162.991 472.384 162.926C472.188 163.186 472.156 163.349 472.286 163.414C472.416 163.479 472.514 163.707 472.579 164.098C471.863 163.967 471.309 164 470.919 164.195C470.593 164.456 470.17 164.618 469.649 164.684C468.412 164.293 467.371 163.609 466.524 162.633C465.743 161.656 465.027 160.582 464.376 159.41C463.79 158.173 463.236 156.936 462.716 155.699C462.26 154.462 461.804 153.388 461.348 152.477C461.544 151.76 461.576 151.077 461.446 150.426C461.316 149.71 461.088 149.124 460.762 148.668C463.953 141.897 467.436 134.671 471.212 126.988C474.988 119.306 478.568 111.721 481.954 104.234C483.451 104.82 484.916 105.504 486.348 106.285C487.846 107.001 489.18 107.848 490.352 108.824C491.589 109.801 492.631 110.94 493.477 112.242C494.324 113.479 494.877 114.879 495.137 116.441C495.007 116.832 494.845 116.995 494.649 116.93C494.519 116.799 494.389 116.832 494.259 117.027C494.519 117.353 494.649 117.581 494.649 117.711C494.714 117.841 494.714 117.971 494.649 118.102C494.649 118.232 494.649 118.427 494.649 118.688C494.649 118.883 494.747 119.176 494.942 119.566C494.682 119.501 494.486 119.534 494.356 119.664C494.291 119.794 494.096 119.794 493.77 119.664C494.031 120.38 494.096 120.966 493.966 121.422C493.901 121.878 493.77 122.301 493.575 122.691C493.38 123.017 493.217 123.408 493.087 123.863C492.956 124.254 492.989 124.775 493.184 125.426C492.989 125.426 492.826 125.491 492.696 125.621C492.631 125.686 492.566 125.784 492.501 125.914C492.436 125.979 492.338 126.077 492.208 126.207C492.143 126.272 492.012 126.272 491.817 126.207C492.012 127.639 492.078 129.072 492.012 130.504C491.947 131.936 491.882 133.401 491.817 134.898C491.817 136.331 491.85 137.861 491.915 139.488C491.98 141.051 492.208 142.678 492.598 144.371C494.942 143.004 496.798 141.246 498.165 139.098C499.597 136.949 500.736 134.54 501.583 131.871C502.494 129.202 503.178 126.337 503.634 123.277C504.089 120.217 504.578 117.092 505.098 113.902C505.684 113.316 506.14 112.6 506.466 111.754C506.791 110.908 507.084 110.029 507.345 109.117C507.605 108.141 507.865 107.197 508.126 106.285C508.386 105.309 508.712 104.43 509.102 103.648C510.079 103.779 510.893 104.104 511.544 104.625C512.26 105.081 512.911 105.602 513.497 106.188C514.083 106.708 514.701 107.229 515.352 107.75C516.003 108.206 516.817 108.499 517.794 108.629C518.575 109.736 519.291 110.81 519.942 111.852C520.593 112.893 521.016 114 521.212 115.172C520.886 115.693 520.626 116.279 520.43 116.93C520.3 117.581 520.137 118.232 519.942 118.883C519.747 119.534 519.486 120.152 519.161 120.738C518.835 121.259 518.38 121.715 517.794 122.105C517.598 123.798 517.338 125.361 517.012 126.793C516.752 128.16 516.459 129.527 516.134 130.895C515.873 132.262 515.645 133.694 515.45 135.191C515.255 136.624 515.19 138.219 515.255 139.977C514.734 141.474 514.18 143.069 513.595 144.762C513.009 146.454 512.553 147.984 512.227 149.352C511.186 150.198 510.372 151.207 509.786 152.379C509.2 153.551 508.581 154.723 507.93 155.895C507.67 156.155 507.507 156.22 507.442 156.09C507.377 155.96 507.149 155.862 506.759 155.797C506.824 156.057 506.824 156.253 506.759 156.383C506.693 156.513 506.596 156.643 506.466 156.773C506.401 156.839 506.335 156.969 506.27 157.164C506.27 157.359 506.335 157.62 506.466 157.945C505.554 158.336 504.74 158.889 504.024 159.605C503.308 160.322 502.527 160.973 501.68 161.559C500.899 162.145 499.923 162.535 498.751 162.73C497.644 162.926 496.179 162.698 494.356 162.047C491.687 160.094 489.311 157.848 487.227 155.309C485.209 152.77 483.549 149.742 482.247 146.227ZM579.239 117.027C577.611 117.027 575.854 117.158 573.966 117.418C572.078 117.613 570.222 117.841 568.399 118.102C567.097 118.297 565.828 118.46 564.591 118.59C563.419 118.72 562.345 118.818 561.368 118.883C560.912 120.315 560.456 121.585 560.001 122.691C559.545 123.798 559.057 124.872 558.536 125.914C558.015 127.021 557.527 128.16 557.071 129.332C556.68 130.439 556.29 131.643 555.899 132.945C555.248 133.987 554.695 134.964 554.239 135.875C553.848 136.721 553.523 137.698 553.262 138.805C552.481 139.781 551.895 140.823 551.505 141.93C551.114 142.971 550.821 143.883 550.626 144.664L550.235 145.836C549.845 146.227 549.617 146.552 549.552 146.812C549.486 147.008 549.324 147.203 549.063 147.398C548.998 148.115 548.77 148.831 548.38 149.547C548.249 149.872 548.152 150.198 548.087 150.523C548.022 150.784 547.989 150.979 547.989 151.109C547.989 151.76 547.826 152.184 547.501 152.379C547.566 152.704 547.566 153.062 547.501 153.453C547.436 153.779 547.371 154.104 547.305 154.43C547.11 155.211 547.045 155.829 547.11 156.285C547.305 156.546 547.468 156.773 547.598 156.969C547.794 157.164 547.924 157.424 547.989 157.75C548.38 158.01 548.673 158.173 548.868 158.238C549.128 158.434 549.519 158.661 550.04 158.922L550.919 159.898C551.244 161.786 550.951 163.284 550.04 164.391C549.063 165.628 547.403 166.246 545.059 166.246H543.887C543.562 165.921 543.367 165.66 543.302 165.465C542.781 165.27 542.358 165.107 542.032 164.977C541.706 164.846 541.414 164.586 541.153 164.195C540.307 163.805 539.623 163.479 539.102 163.219L538.223 162.73C538.223 162.014 538.223 161.624 538.223 161.559C537.768 160.973 537.41 160.322 537.149 159.605C536.954 158.889 536.791 158.173 536.661 157.457C536.531 156.871 536.368 156.318 536.173 155.797C536.042 155.276 535.847 154.82 535.587 154.43C535.456 150.654 535.815 147.464 536.661 144.859C537.507 142.255 538.386 139.749 539.298 137.34C539.818 136.038 540.339 134.736 540.86 133.434C541.381 132.066 541.837 130.667 542.227 129.234L543.106 128.258C543.562 127.216 543.92 126.37 544.18 125.719C544.506 125.003 544.831 124.286 545.157 123.57C545.352 123.115 545.515 122.691 545.645 122.301C545.841 121.845 546.003 121.454 546.134 121.129C545.743 121.129 545.385 121.161 545.059 121.227C544.734 121.227 544.408 121.259 544.083 121.324C543.692 121.389 543.334 121.454 543.009 121.52C542.683 121.52 542.358 121.52 542.032 121.52C541.576 121.52 541.251 121.487 541.055 121.422C540.339 121.747 539.558 121.91 538.712 121.91H537.735C537.54 121.91 537.345 121.91 537.149 121.91C537.019 121.845 536.889 121.812 536.759 121.812C536.108 121.812 535.587 121.91 535.196 122.105C534.415 122.105 533.666 122.105 532.95 122.105H531.973C531.843 122.105 531.68 122.138 531.485 122.203C531.29 122.203 531.127 122.203 530.997 122.203C530.541 122.203 530.053 122.171 529.532 122.105C529.011 121.975 528.458 121.747 527.872 121.422C527.091 120.38 526.57 119.827 526.309 119.762L525.43 118.59C525.365 118.199 525.268 117.841 525.137 117.516C525.007 117.125 524.877 116.702 524.747 116.246C524.486 115.595 524.226 114.911 523.966 114.195C523.77 113.414 523.673 112.503 523.673 111.461C523.738 110.94 523.868 110.549 524.063 110.289C524.259 110.029 524.421 109.801 524.552 109.605L524.845 108.141L526.114 108.238H528.848C530.932 108.238 533.048 108.173 535.196 108.043C537.345 107.848 539.558 107.652 541.837 107.457C543.139 107.327 544.441 107.197 545.743 107.066C547.11 106.936 548.51 106.806 549.942 106.676C550.203 106.09 550.463 105.536 550.723 105.016L551.7 104.527C552.872 104.462 553.686 104.625 554.141 105.016C554.662 105.341 555.085 105.667 555.411 105.992C556.843 105.862 558.276 105.732 559.708 105.602C561.205 105.406 562.703 105.178 564.2 104.918C566.414 104.592 568.627 104.299 570.841 104.039C573.119 103.779 575.3 103.648 577.384 103.648C578.295 103.648 579.174 103.681 580.02 103.746C580.867 103.811 581.648 103.909 582.364 104.039L583.341 104.723C583.536 105.113 583.796 105.471 584.122 105.797C584.512 106.122 584.903 106.448 585.294 106.773C586.075 107.49 586.856 108.336 587.637 109.312C588.419 110.289 588.712 111.721 588.516 113.609C587.996 114.391 587.605 114.846 587.345 114.977L586.466 116.148L585.489 116.051C585.098 116.051 584.74 116.116 584.415 116.246C584.089 116.311 583.764 116.409 583.438 116.539C583.178 116.669 582.917 116.799 582.657 116.93C582.397 116.995 582.104 117.06 581.778 117.125C581.192 117.125 580.704 117.125 580.313 117.125C579.988 117.06 579.63 117.027 579.239 117.027Z" fill="white"/>
<path d="M31.5372 14.712C7.73154 4.36169 6.97746 109.557 17.3591 154.72C42.419 183.457 200.775 187.981 288.514 154.72C304.083 117.852 285.985 10.7734 272.121 14.712C187.052 51.0432 73.6282 33.0125 31.5372 14.712Z" fill="white"/>
<circle cx="152.04" cy="108.803" r="63.3423" fill="url(#paint0_radial_2_2)"/>
<path d="M97.6191 116.113C97.6191 115.684 97.6777 115.293 97.7949 114.941C97.9121 114.59 97.9316 114.141 97.8535 113.594C99.0645 111.016 100.432 108.633 101.955 106.445C103.518 104.219 105.373 102.266 107.521 100.586C107.873 100.312 108.146 100.039 108.342 99.7656C108.576 99.4531 108.791 99.1602 108.986 98.8867C109.221 98.6133 109.475 98.3789 109.748 98.1836C110.021 97.9492 110.373 97.793 110.803 97.7148C111.779 96.582 112.951 95.5469 114.318 94.6094C115.686 93.6719 117.111 92.7734 118.596 91.9141C120.08 91.0547 121.564 90.1758 123.049 89.2773C124.572 88.3789 125.939 87.4023 127.15 86.3477C127.58 86.6211 127.912 86.7188 128.146 86.6406C128.42 86.5234 128.693 86.5039 128.967 86.582C129.318 87.3242 129.768 87.8516 130.314 88.1641C130.9 88.4375 131.486 88.7305 132.072 89.043C132.697 89.3164 133.264 89.668 133.771 90.0977C134.318 90.4883 134.729 91.0352 135.002 91.7383C134.729 91.7383 134.592 91.8359 134.592 92.0312C134.631 92.2266 134.689 92.4414 134.768 92.6758C134.846 92.9102 134.885 93.125 134.885 93.3203C134.885 93.5156 134.709 93.6133 134.357 93.6133C134.357 93.8867 134.494 94.0234 134.768 94.0234C135.041 94.0234 135.178 94.1602 135.178 94.4336C135.178 94.668 135.119 94.8633 135.002 95.0195C134.924 95.1367 134.924 95.3516 135.002 95.6641C134.064 96.2891 133.01 96.8945 131.838 97.4805C130.705 98.0273 129.494 98.6133 128.205 99.2383C126.955 99.8633 125.666 100.547 124.338 101.289C123.049 101.992 121.76 102.812 120.471 103.75C119.182 104.688 117.873 105.723 116.545 106.855C115.256 107.988 114.006 109.199 112.795 110.488C111.584 111.738 110.451 113.047 109.396 114.414C108.342 115.742 107.443 117.051 106.701 118.34C106.779 118.535 106.877 118.711 106.994 118.867C107.15 119.023 107.268 119.199 107.346 119.395C108.83 119.473 110.217 119.473 111.506 119.395C112.795 119.277 114.084 119.355 115.373 119.629C115.529 119.512 115.627 119.355 115.666 119.16C115.705 118.965 115.822 118.828 116.018 118.75C118.674 118.477 121.154 118.047 123.459 117.461C125.764 116.836 128.107 116.211 130.49 115.586C129.787 115.312 129.162 115.098 128.615 114.941C128.381 114.707 128.381 114.512 128.615 114.355C128.889 114.16 129.104 113.965 129.26 113.77C128.635 113.418 128.107 112.949 127.678 112.363C127.287 111.777 127.053 111.016 126.975 110.078C127.248 109.844 127.385 109.57 127.385 109.258C127.385 108.945 127.248 108.691 126.975 108.496C126.779 108.418 126.662 108.418 126.623 108.496C126.584 108.574 126.545 108.652 126.506 108.73C126.506 108.809 126.467 108.887 126.389 108.965C126.35 109.043 126.252 109.043 126.096 108.965C126.135 108.535 126.232 108.184 126.389 107.91C126.545 107.637 126.662 107.305 126.74 106.914L131.604 103.691C132.111 104.082 132.736 104.492 133.479 104.922C134.221 105.352 135.002 105.781 135.822 106.211C136.643 106.641 137.482 107.09 138.342 107.559C139.201 107.988 140.002 108.418 140.744 108.848C141.447 109.16 142.053 109.551 142.561 110.02C143.068 110.449 143.557 110.918 144.025 111.426C144.494 111.895 144.963 112.363 145.432 112.832C145.9 113.301 146.467 113.691 147.131 114.004C147.053 114.629 147.092 115.137 147.248 115.527C147.404 115.918 147.443 116.387 147.365 116.934C146.623 118.262 145.725 119.395 144.67 120.332C143.615 121.23 142.424 122.012 141.096 122.676C139.807 123.34 138.42 123.906 136.936 124.375C135.451 124.805 133.928 125.234 132.365 125.664C130.803 126.055 129.221 126.484 127.619 126.953C126.057 127.383 124.514 127.891 122.99 128.477C122.326 128.477 121.76 128.496 121.291 128.535C120.822 128.574 120.373 128.633 119.943 128.711C119.514 128.789 119.084 128.867 118.654 128.945C118.225 129.023 117.756 129.082 117.248 129.121C117.053 129.082 116.916 129.121 116.838 129.238C116.799 129.355 116.721 129.453 116.604 129.531C115.822 129.648 115.119 129.707 114.494 129.707C113.869 129.707 113.342 129.707 112.912 129.707C112.365 129.707 111.799 129.785 111.213 129.941C110.627 130.098 110.08 130.156 109.572 130.117C106.057 129.961 103.303 128.711 101.311 126.367C99.3184 124.023 98.2246 120.801 98.0293 116.699C98.0684 116.504 98.0293 116.387 97.9121 116.348C97.7949 116.27 97.6973 116.191 97.6191 116.113ZM153.236 130.82C152.846 130.82 152.24 130.762 151.42 130.645C150.795 129.98 150.229 129.082 149.721 127.949C149.252 126.777 148.881 125.547 148.607 124.258C148.373 122.93 148.256 121.621 148.256 120.332C148.295 119.004 148.529 117.832 148.959 116.816C148.959 116.777 149.135 116.309 149.486 115.41C149.877 114.512 150.365 113.379 150.951 112.012C151.537 110.605 152.201 109.062 152.943 107.383C153.686 105.664 154.428 103.984 155.17 102.344C155.912 100.703 156.615 99.2188 157.279 97.8906C157.982 96.5234 158.588 95.4688 159.096 94.7266C159.447 94.1797 159.76 93.6523 160.033 93.1445C160.346 92.6367 160.639 92.168 160.912 91.7383C161.342 91.0352 161.732 90.3906 162.084 89.8047C162.475 89.1797 162.885 88.6328 163.314 88.1641C163.783 87.6562 164.291 87.2266 164.838 86.875C165.385 86.4844 166.049 86.1523 166.83 85.8789C167.299 86.0742 167.709 86.2891 168.061 86.5234C168.412 86.7188 168.725 86.9727 168.998 87.2852L169.174 88.1055C169.252 88.3789 169.369 88.5742 169.525 88.6914C169.721 88.7695 169.877 88.8086 169.994 88.8086C170.502 88.9258 170.932 89.0625 171.283 89.2188C171.674 89.3359 172.084 89.4141 172.514 89.4531C172.67 89.6875 172.807 89.9219 172.924 90.1562C173.08 90.3906 173.236 90.6055 173.393 90.8008C174.174 91.9336 174.818 93.0273 175.326 94.082C175.834 95.1367 175.834 96.2891 175.326 97.5391L175.385 98.1836C175.58 98.457 175.678 98.7109 175.678 98.9453C175.678 99.1797 175.639 99.5117 175.561 99.9414C175.521 100.254 175.482 100.605 175.443 100.996C175.443 101.348 175.502 101.738 175.619 102.168L176.029 102.637C176.654 102.949 177.26 103.105 177.846 103.105C178.627 103.105 179.33 102.93 179.955 102.578C180.58 102.227 181.166 101.875 181.713 101.523C182.143 101.211 182.533 100.957 182.885 100.762C183.275 100.566 183.646 100.43 183.998 100.352C184.818 99.5703 185.561 98.8867 186.225 98.3008C186.928 97.6758 187.65 97.0508 188.393 96.4258C189.799 95.293 191.166 94.082 192.494 92.793C193.822 91.4648 194.877 89.8242 195.658 87.8711C196.088 87.5977 196.576 87.4609 197.123 87.4609C197.67 87.4609 198.217 87.5781 198.764 87.8125C199.311 88.0078 199.857 88.2422 200.404 88.5156C200.521 88.5938 200.619 88.6523 200.697 88.6914C200.814 88.7305 200.932 88.7891 201.049 88.8672C201.049 89.2969 201.225 89.6875 201.576 90.0391C201.771 90.1953 201.908 90.293 201.986 90.332C202.064 90.3711 202.143 90.4102 202.221 90.4492C202.533 90.6445 202.787 90.8203 202.982 90.9766C203.217 91.1328 203.393 91.3477 203.51 91.6211C203.861 92.6758 204.447 93.4961 205.268 94.082C205.189 94.5117 205.209 94.9414 205.326 95.3711C205.443 95.7617 205.58 96.1523 205.736 96.543C205.814 96.6992 205.873 96.8555 205.912 97.0117C205.951 97.1289 206.01 97.2852 206.088 97.4805L204.799 97.3633L204.975 98.6523C205.092 99.3164 205.033 100.059 204.799 100.879C204.604 101.699 204.369 102.344 204.096 102.812C204.174 103.984 204.213 104.922 204.213 105.625C204.213 106.289 204.174 106.914 204.096 107.5C204.018 108.086 203.881 108.652 203.686 109.199C203.529 109.707 203.314 110.254 203.041 110.84C203.197 113.809 202.846 116.523 201.986 118.984C201.166 121.445 200.268 123.75 199.291 125.898C199.174 126.172 199.057 126.426 198.939 126.66C198.822 126.895 198.725 127.129 198.646 127.363C198.217 127.48 197.826 127.617 197.475 127.773C197.123 127.93 196.791 128.105 196.479 128.301C196.049 128.574 195.619 128.809 195.189 129.004C194.76 129.16 194.311 129.238 193.842 129.238C191.967 127.871 190.99 125.508 190.912 122.148C190.873 118.789 191.596 114.512 193.08 109.316C193.354 109.121 193.471 108.828 193.432 108.438V107.793L192.846 107.734C192.65 107.734 192.475 107.754 192.318 107.793C192.162 107.832 192.045 108.008 191.967 108.32C190.717 109.219 189.35 110.156 187.865 111.133C186.42 112.07 184.916 112.949 183.354 113.77C181.791 114.551 180.189 115.215 178.549 115.762C176.947 116.27 175.385 116.523 173.861 116.523C169.955 116.523 167.006 114.531 165.014 110.547L164.486 109.492L163.9 110.43C163.783 110.625 163.568 111.016 163.256 111.602C162.982 112.148 162.689 112.793 162.377 113.535C162.104 114.277 161.85 115.039 161.615 115.82C161.42 116.602 161.361 117.285 161.439 117.871C160.971 118.301 160.502 118.789 160.033 119.336C159.604 119.883 159.291 120.508 159.096 121.211C159.018 121.406 158.998 121.602 159.037 121.797C159.076 121.953 159.135 122.129 159.213 122.324C159.174 122.598 159.096 122.793 158.979 122.91C158.861 123.027 158.725 123.145 158.568 123.262C158.373 123.457 158.178 123.672 157.982 123.906C157.787 124.102 157.611 124.336 157.455 124.609C157.377 124.844 157.318 125.098 157.279 125.371C157.24 125.605 157.201 125.82 157.162 126.016C157.162 126.445 157.104 126.738 156.986 126.895C156.596 127.715 156.244 128.398 155.932 128.945C155.658 129.453 155.385 129.844 155.111 130.117C154.838 130.391 154.545 130.566 154.232 130.645C153.959 130.762 153.627 130.82 153.236 130.82Z" fill="black"/>
<defs>
<radialGradient id="paint0_radial_2_2" cx="0" cy="0" r="1" gradientUnits="userSpaceOnUse" gradientTransform="translate(152.04 108.803) rotate(90) scale(63.3423)">
<stop stop-color="#FAFF00"/>
<stop offset="1" stop-color="#70FF00"/>
</radialGradient>
</defs>
</svg>
